<mxfile host="app.diagrams.net" agent="Mozilla/5.0 (Windows NT 10.0; Win64; x64) AppleWebKit/537.36 (KHTML, like Gecko) Chrome/131.0.0.0 Safari/537.36" version="26.0.2">
  <diagram name="第 1 页" id="4_8M0agI5orC9RJVUApe">
    <mxGraphModel dx="1059" dy="560" grid="1" gridSize="10" guides="1" tooltips="1" connect="1" arrows="1" fold="1" page="1" pageScale="1" pageWidth="2339" pageHeight="3300" math="0" shadow="0">
      <root>
        <mxCell id="0" />
        <mxCell id="1" parent="0" />
        <mxCell id="aFCvyqH1sVh0YoV7rTKQ-1" value="" style="ellipse;html=1;shape=startState;fillColor=#000000;strokeColor=#ff0000;" vertex="1" parent="1">
          <mxGeometry x="360" y="30" width="30" height="30" as="geometry" />
        </mxCell>
        <mxCell id="aFCvyqH1sVh0YoV7rTKQ-2" value="" style="edgeStyle=orthogonalEdgeStyle;html=1;verticalAlign=bottom;endArrow=open;endSize=8;strokeColor=#ff0000;rounded=0;entryX=0.5;entryY=0;entryDx=0;entryDy=0;" edge="1" source="aFCvyqH1sVh0YoV7rTKQ-1" parent="1" target="aFCvyqH1sVh0YoV7rTKQ-3">
          <mxGeometry relative="1" as="geometry">
            <mxPoint x="375" y="120" as="targetPoint" />
          </mxGeometry>
        </mxCell>
        <mxCell id="aFCvyqH1sVh0YoV7rTKQ-6" value="" style="edgeStyle=orthogonalEdgeStyle;rounded=0;orthogonalLoop=1;jettySize=auto;html=1;strokeColor=#FF0000;" edge="1" parent="1" source="aFCvyqH1sVh0YoV7rTKQ-3" target="aFCvyqH1sVh0YoV7rTKQ-5">
          <mxGeometry relative="1" as="geometry" />
        </mxCell>
        <mxCell id="aFCvyqH1sVh0YoV7rTKQ-3" value="实时计算上中游企业的供应能力" style="rounded=1;whiteSpace=wrap;html=1;arcSize=40;fontColor=#000000;fillColor=#ffffc0;strokeColor=#ff0000;" vertex="1" parent="1">
          <mxGeometry x="312.5" y="100" width="125" height="50" as="geometry" />
        </mxCell>
        <mxCell id="aFCvyqH1sVh0YoV7rTKQ-10" style="edgeStyle=orthogonalEdgeStyle;rounded=0;orthogonalLoop=1;jettySize=auto;html=1;entryX=0.5;entryY=0;entryDx=0;entryDy=0;strokeColor=#FF0000;" edge="1" parent="1" source="aFCvyqH1sVh0YoV7rTKQ-5" target="aFCvyqH1sVh0YoV7rTKQ-7">
          <mxGeometry relative="1" as="geometry" />
        </mxCell>
        <mxCell id="aFCvyqH1sVh0YoV7rTKQ-5" value="根据合作上游企业和全上游企业的供应能力实时计算该企业的断链风险" style="whiteSpace=wrap;html=1;fillColor=#ffffc0;strokeColor=#ff0000;fontColor=#000000;rounded=1;arcSize=40;" vertex="1" parent="1">
          <mxGeometry x="275" y="200" width="200" height="45" as="geometry" />
        </mxCell>
        <mxCell id="aFCvyqH1sVh0YoV7rTKQ-7" value="断链风险超过预警值" style="rhombus;whiteSpace=wrap;html=1;fontColor=#000000;fillColor=#ffffc0;strokeColor=#ff0000;" vertex="1" parent="1">
          <mxGeometry x="310" y="290" width="130" height="60" as="geometry" />
        </mxCell>
        <mxCell id="aFCvyqH1sVh0YoV7rTKQ-8" value="no" style="edgeStyle=orthogonalEdgeStyle;html=1;align=left;verticalAlign=bottom;endArrow=open;endSize=8;strokeColor=#ff0000;rounded=0;entryX=0;entryY=0.5;entryDx=0;entryDy=0;" edge="1" source="aFCvyqH1sVh0YoV7rTKQ-7" parent="1" target="aFCvyqH1sVh0YoV7rTKQ-13">
          <mxGeometry x="-1" relative="1" as="geometry">
            <mxPoint x="540" y="320" as="targetPoint" />
          </mxGeometry>
        </mxCell>
        <mxCell id="aFCvyqH1sVh0YoV7rTKQ-9" value="yes" style="edgeStyle=orthogonalEdgeStyle;html=1;align=left;verticalAlign=top;endArrow=open;endSize=8;strokeColor=#ff0000;rounded=0;entryX=0.5;entryY=0;entryDx=0;entryDy=0;" edge="1" source="aFCvyqH1sVh0YoV7rTKQ-7" parent="1" target="aFCvyqH1sVh0YoV7rTKQ-16">
          <mxGeometry x="-1" relative="1" as="geometry">
            <mxPoint x="375" y="400" as="targetPoint" />
          </mxGeometry>
        </mxCell>
        <mxCell id="aFCvyqH1sVh0YoV7rTKQ-13" value="" style="ellipse;html=1;shape=endState;fillColor=#000000;strokeColor=#ff0000;" vertex="1" parent="1">
          <mxGeometry x="490" y="305" width="30" height="30" as="geometry" />
        </mxCell>
        <mxCell id="aFCvyqH1sVh0YoV7rTKQ-16" value="系统中提示并给该企业发送预警邮件" style="rounded=1;whiteSpace=wrap;html=1;arcSize=40;fontColor=#000000;fillColor=#ffffc0;strokeColor=#ff0000;" vertex="1" parent="1">
          <mxGeometry x="315" y="410" width="120" height="40" as="geometry" />
        </mxCell>
        <mxCell id="aFCvyqH1sVh0YoV7rTKQ-17" value="" style="edgeStyle=orthogonalEdgeStyle;html=1;verticalAlign=bottom;endArrow=open;endSize=8;strokeColor=#ff0000;rounded=0;entryX=0.5;entryY=0;entryDx=0;entryDy=0;" edge="1" source="aFCvyqH1sVh0YoV7rTKQ-16" parent="1" target="aFCvyqH1sVh0YoV7rTKQ-18">
          <mxGeometry relative="1" as="geometry">
            <mxPoint x="375" y="500" as="targetPoint" />
          </mxGeometry>
        </mxCell>
        <mxCell id="aFCvyqH1sVh0YoV7rTKQ-18" value="" style="ellipse;html=1;shape=endState;fillColor=#000000;strokeColor=#ff0000;" vertex="1" parent="1">
          <mxGeometry x="360" y="490" width="30" height="30" as="geometry" />
        </mxCell>
      </root>
    </mxGraphModel>
  </diagram>
</mxfile>
